<?xml version="1.0" encoding="utf-8"?>
<!-- Generator: Adobe Illustrator 15.0.2, SVG Export Plug-In . SVG Version: 6.00 Build 0)  -->
<!DOCTYPE svg PUBLIC "-//W3C//DTD SVG 1.1//EN" "http://www.w3.org/Graphics/SVG/1.1/DTD/svg11.dtd">
<svg version="1.1" id="Layer_1" xmlns="http://www.w3.org/2000/svg" xmlns:xlink="http://www.w3.org/1999/xlink" x="0px" y="0px"
	 width="42.648pt" height="42.648pt" viewBox="0 0 42.648 42.648" enable-background="new 0 0 42.648 42.648" xml:space="preserve">
<linearGradient id="SVGID_1_" gradientUnits="userSpaceOnUse" x1="310.8845" y1="426.8054" x2="310.8845" y2="390.6638" gradientTransform="matrix(1 0 0 1 -289.5605 -386.9766)">
	<stop  offset="0" style="stop-color:#204492"/>
	<stop  offset="0.1753" style="stop-color:#3B62A6"/>
	<stop  offset="0.5542" style="stop-color:#719DCE"/>
	<stop  offset="0.8339" style="stop-color:#93C2E7"/>
	<stop  offset="0.9818" style="stop-color:#A0D0F0"/>
</linearGradient>
<path fill="url(#SVGID_1_)" stroke="#A4A5A4" stroke-width="0.25" d="M39.397,21.757c0,9.982-8.091,18.072-18.07,18.072
	c-9.98,0-18.073-8.09-18.073-18.072c0-9.979,8.093-18.069,18.073-18.069C31.306,3.687,39.397,11.777,39.397,21.757z"/>
<path opacity="0.4" fill="#FFFFFF" enable-background="new    " d="M42.649,21.324c0,11.777-9.547,21.324-21.325,21.324
	c-11.777,0-21.325-9.546-21.325-21.324S9.546,0,21.326,0c11.778,0,21.325,9.547,21.325,21.324H42.649z"/>
<path fill="#1E4592" d="M23.939,21.952c0,0,2.946,8.122-0.149,13.118L6.949,24.544c3.097-4.996,11.736-6.21,11.736-6.21l5.876-9.479
	l5.484,3.384L23.939,21.952L23.939,21.952z"/>
<path fill="#FFFFFF" d="M22.592,21.368c0,0,2.726,7.917,0.432,11.618L9.148,24.541c2.293-3.7,10.701-5.129,10.701-5.129l6.025-9.723
	l2.758,1.708L22.592,21.368L22.592,21.368z"/>
<linearGradient id="SVGID_2_" gradientUnits="userSpaceOnUse" x1="315.0378" y1="-384.7561" x2="315.0378" y2="-378.8821" gradientTransform="matrix(1 0 0 -1 -289.5996 -369.1919)">
	<stop  offset="0" style="stop-color:#204492"/>
	<stop  offset="0.0317" style="stop-color:#32589F"/>
	<stop  offset="0.0922" style="stop-color:#5078B5"/>
	<stop  offset="0.1604" style="stop-color:#6994C7"/>
	<stop  offset="0.2371" style="stop-color:#7DAAD6"/>
	<stop  offset="0.326" style="stop-color:#8DBBE2"/>
	<stop  offset="0.4351" style="stop-color:#98C7EA"/>
	<stop  offset="0.586" style="stop-color:#9ECEEF"/>
	<stop  offset="0.9818" style="stop-color:#A0D0F0"/>
</linearGradient>
<path fill="url(#SVGID_2_)" d="M22.256,15.527l3.618-5.837l2.745,1.614l-2.527,4.26L22.256,15.527z"/>
<g id="Layer_6_13_">
	<g>
		<path fill="#58595B" d="M8.908,33.848c1.688,1.563,3.654,2.798,5.768,3.635c2.115,0.833,4.38,1.284,6.648,1.265
			c2.271,0.021,4.535-0.431,6.646-1.265c2.112-0.838,4.077-2.072,5.771-3.635c-1.563,1.691-3.484,3.069-5.621,3.988
			c-2.135,0.93-4.467,1.391-6.797,1.408c-2.33-0.021-4.662-0.479-6.795-1.408C12.391,36.917,10.467,35.539,8.908,33.848z"/>
	</g>
</g>
<g>
	<path fill="#FFFFFF" stroke="#58595B" stroke-width="0.5" stroke-miterlimit="10" d="M37.292,38.138
		c0,0.78-0.634,1.415-1.414,1.415h-4.893c-0.781,0-1.414-0.635-1.414-1.415v-4.893c0-0.781,0.633-1.415,1.414-1.415h4.893
		c0.78,0,1.414,0.634,1.414,1.415V38.138z"/>
	<g>
		<path fill="#231F20" d="M32.498,33.989c0,0.088-0.015,0.146-0.043,0.176c-0.027,0.028-0.083,0.043-0.16,0.043
			c-0.072,0-0.125-0.014-0.152-0.043c-0.028-0.027-0.043-0.085-0.043-0.17c0-0.089,0.015-0.146,0.043-0.177
			c0.029-0.028,0.083-0.044,0.16-0.044c0.073,0,0.125,0.015,0.153,0.043C32.486,33.846,32.498,33.903,32.498,33.989z"/>
		<path fill="#231F20" d="M33.46,33.989c0,0.088-0.015,0.146-0.043,0.176c-0.029,0.028-0.083,0.043-0.16,0.043
			c-0.072,0-0.125-0.014-0.152-0.043c-0.028-0.027-0.043-0.085-0.043-0.17c0-0.089,0.015-0.146,0.043-0.177
			c0.027-0.028,0.083-0.044,0.159-0.044c0.073,0,0.126,0.015,0.153,0.043C33.446,33.846,33.46,33.903,33.46,33.989z"/>
		<path fill="#231F20" d="M34.421,33.989c0,0.088-0.015,0.146-0.044,0.176c-0.027,0.028-0.082,0.043-0.159,0.043
			c-0.073,0-0.125-0.014-0.151-0.043c-0.03-0.027-0.044-0.085-0.044-0.17c0-0.089,0.015-0.146,0.044-0.177
			c0.028-0.028,0.082-0.044,0.159-0.044c0.073,0,0.125,0.015,0.153,0.043C34.406,33.846,34.421,33.903,34.421,33.989z"/>
	</g>
	<g>
		<path fill="#231F20" d="M32.498,35.776c0,0.088-0.015,0.146-0.043,0.176c-0.027,0.029-0.083,0.044-0.16,0.044
			c-0.072,0-0.125-0.014-0.152-0.042c-0.028-0.029-0.043-0.086-0.043-0.172c0-0.088,0.015-0.146,0.043-0.176
			c0.029-0.029,0.083-0.043,0.16-0.043c0.073,0,0.125,0.014,0.153,0.043C32.486,35.634,32.498,35.691,32.498,35.776z"/>
		<path fill="#231F20" d="M33.46,35.776c0,0.088-0.015,0.146-0.043,0.176c-0.029,0.029-0.083,0.044-0.16,0.044
			c-0.072,0-0.125-0.014-0.152-0.042c-0.028-0.029-0.043-0.086-0.043-0.172c0-0.088,0.015-0.146,0.043-0.176
			c0.027-0.03,0.083-0.043,0.159-0.043c0.073,0,0.126,0.014,0.153,0.043C33.446,35.634,33.46,35.691,33.46,35.776z"/>
		<path fill="#231F20" d="M34.421,35.776c0,0.088-0.015,0.146-0.044,0.176c-0.027,0.029-0.082,0.044-0.159,0.044
			c-0.073,0-0.125-0.014-0.151-0.042c-0.03-0.029-0.044-0.086-0.044-0.172c0-0.088,0.015-0.146,0.044-0.176
			c0.028-0.029,0.082-0.043,0.159-0.043c0.073,0,0.125,0.014,0.153,0.043C34.406,35.634,34.421,35.691,34.421,35.776z"/>
	</g>
	<g>
		<path fill="#231F20" d="M32.498,37.823c0,0.088-0.015,0.146-0.043,0.176c-0.027,0.03-0.083,0.043-0.16,0.043
			c-0.072,0-0.125-0.014-0.152-0.042c-0.028-0.027-0.043-0.085-0.043-0.171c0-0.088,0.015-0.146,0.043-0.176
			c0.029-0.029,0.083-0.043,0.16-0.043c0.073,0,0.125,0.014,0.153,0.042C32.485,37.68,32.498,37.737,32.498,37.823z"/>
		<path fill="#231F20" d="M33.46,37.823c0,0.088-0.015,0.146-0.043,0.176c-0.029,0.029-0.083,0.043-0.16,0.043
			c-0.072,0-0.125-0.014-0.152-0.042c-0.028-0.027-0.043-0.085-0.043-0.171c0-0.088,0.015-0.146,0.043-0.176
			c0.027-0.03,0.083-0.043,0.159-0.043c0.073,0,0.126,0.014,0.153,0.042C33.445,37.68,33.46,37.737,33.46,37.823z"/>
		<path fill="#231F20" d="M34.421,37.823c0,0.088-0.015,0.146-0.044,0.176c-0.027,0.029-0.082,0.043-0.159,0.043
			c-0.073,0-0.125-0.014-0.151-0.042c-0.03-0.027-0.044-0.085-0.044-0.171c0-0.088,0.015-0.146,0.044-0.176
			c0.028-0.029,0.082-0.043,0.159-0.043c0.073,0,0.125,0.014,0.153,0.042C34.406,37.68,34.421,37.737,34.421,37.823z"/>
	</g>
</g>
<g>
	<path fill="#FFFFFF" d="M9.762,9.689c1.311-1.702,3.156-2.974,5.15-3.853c2.003-0.889,4.212-1.309,6.409-1.326
		c2.2,0.016,4.408,0.444,6.408,1.337c1.991,0.882,3.832,2.152,5.158,3.841c-1.742-1.222-3.631-2.116-5.573-2.749
		c-1.949-0.616-3.968-0.942-5.993-0.93C19.294,6,17.275,6.318,15.325,6.93C13.383,7.559,11.494,8.451,9.762,9.689z"/>
</g>
</svg>
